{"asset":{"version":"2.0","generator":"babylon.js glTF exporter for 3ds max 2015 v1.3.4"},"scene":0,"scenes":[{"nodes":[0,10],"extensions":{}}],"nodes":[{"children":[1,2,3,4,5,6,7,8,9],"mesh":0,"translation":[-160.941513,233.83,-48.8392258],"rotation":[-0.499999881,0.49999994,-0.5000001,0.5],"scale":[1.85557735,1.63855,1.63855028],"name":"GeoSphere002"},{"mesh":1,"translation":[-11.1260223,-38.9853745,-64.7639],"rotation":[-2.56913523E-07,0.505314469,-1.89988487E-08,0.8629353],"scale":[0.422276318,0.126719445,0.247831464],"name":"GeoSphere006"},{"mesh":1,"translation":[-11.1260071,-38.9853477,65.78992],"rotation":[-0.8629353,-1.46743574E-07,-0.50531435,-2.26148686E-07],"scale":[0.4222764,-0.126719445,0.247831345],"name":"GeoSphere007"},{"mesh":2,"translation":[-61.1042938,-22.0038,0.36341095],"rotation":[-0.000452110573,0.7071067,-0.0004522226,0.7071066],"scale":[0.6102954,0.6102956,0.5389158],"name":"Box002"},{"mesh":3,"translation":[64.49597,-54.4848557,-22.1847076],"rotation":[0.0422849953,0.379561573,-0.09457272,0.9193481],"scale":[0.388494045,0.182327032,0.259270847],"name":"GeoSphere003"},{"mesh":4,"translation":[66.1208344,56.20276,-0.3914795],"rotation":[-0.661155343,0.27726844,0.625128865,0.308560729],"scale":[0.6102955,0.5706681,0.5807144],"name":"Cone001"},{"mesh":5,"translation":[-82.6824951,-0.6119995,35.9882278],"rotation":[-2.05748734E-07,-1.360759E-08,-2.37588836E-07,1.0],"scale":[0.5858419,0.726954341,0.7269541],"name":"Sphere007"},{"mesh":5,"translation":[-82.68251,-0.6120148,-36.0453339],"rotation":[-1.0,2.37588779E-07,4.884396E-09,-2.38418579E-07],"scale":[0.5858419,-0.7269543,0.7269541],"name":"Sphere008"},{"mesh":6,"translation":[-82.02962,-0.0297870636,-36.9852],"rotation":[-0.5199145,0.463024974,0.56744206,0.439666122],"scale":[0.5332191,-0.4979643,0.5523418],"name":"Sphere009"},{"mesh":6,"translation":[-82.0296,-0.0298023224,36.92813],"rotation":[-0.418879718,-0.5638354,-0.4290509,0.5679302],"scale":[0.533219039,0.497964352,0.552341938],"name":"Sphere006"},{"translation":[0.0,0.0,0.0],"rotation":[0.0,0.0,0.0,1.0],"scale":[1.0,1.0,1.0],"name":"Default light"}],"meshes":[{"primitives":[{"attributes":{"POSITION":1,"NORMAL":2,"TEXCOORD_0":3},"indices":0,"mode":4,"material":0}],"name":"GeoSphere002"},{"primitives":[{"attributes":{"POSITION":5,"NORMAL":6,"TEXCOORD_0":7},"indices":4,"mode":4,"material":0}],"name":"GeoSphere006"},{"primitives":[{"attributes":{"POSITION":9,"NORMAL":10,"TEXCOORD_0":11},"indices":8}],"name":"Box002"},{"primitives":[{"attributes":{"POSITION":13,"NORMAL":14,"TEXCOORD_0":15},"indices":12,"mode":4,"material":0}],"name":"GeoSphere003"},{"primitives":[{"attributes":{"POSITION":17,"NORMAL":18,"TEXCOORD_0":19},"indices":16,"mode":4,"material":1}],"name":"Cone001"},{"primitives":[{"attributes":{"POSITION":21,"NORMAL":22,"TEXCOORD_0":23},"indices":20,"mode":4,"material":2}],"name":"Sphere007"},{"primitives":[{"attributes":{"POSITION":25,"NORMAL":26,"TEXCOORD_0":27},"indices":24,"mode":4,"material":1}],"name":"Sphere009"}],"accessors":[{"bufferView":0,"componentType":5123,"count":6000,"type":"SCALAR","name":"accessorIndices"},{"bufferView":1,"componentType":5126,"count":6000,"max":[89.38454,89.56125,89.56124],"min":[-89.38452,-89.56125,-89.56125],"type":"VEC3","name":"accessorPositions"},{"bufferView":1,"byteOffset":72000,"componentType":5126,"count":6000,"type":"VEC3","name":"accessorNormals"},{"bufferView":2,"componentType":5126,"count":6000,"type":"VEC2","name":"accessorUVs"},{"bufferView":0,"byteOffset":12000,"componentType":5123,"count":2940,"type":"SCALAR","name":"accessorIndices"},{"bufferView":1,"byteOffset":144000,"componentType":5126,"count":2940,"max":[161.7359,89.56125,36.0626221],"min":[-16.92598,-89.56127,-142.500061],"type":"VEC3","name":"accessorPositions"},{"bufferView":1,"byteOffset":179280,"componentType":5126,"count":2940,"type":"VEC3","name":"accessorNormals"},{"bufferView":2,"byteOffset":48000,"componentType":5126,"count":2940,"type":"VEC2","name":"accessorUVs"},{"bufferView":0,"byteOffset":17880,"componentType":5123,"count":11748,"type":"SCALAR","name":"accessorIndices"},{"bufferView":1,"byteOffset":214560,"componentType":5126,"count":11748,"max":[55.8639679,9.465241,57.28827],"min":[-55.86396,-4.73492241,-53.1832275],"type":"VEC3","name":"accessorPositions"},{"bufferView":1,"byteOffset":355536,"componentType":5126,"count":11748,"type":"VEC3","name":"accessorNormals"},{"bufferView":2,"byteOffset":71520,"componentType":5126,"count":11748,"type":"VEC2","name":"accessorUVs"},{"bufferView":0,"byteOffset":41376,"componentType":5123,"count":5784,"type":"SCALAR","name":"accessorIndices"},{"bufferView":1,"byteOffset":496512,"componentType":5126,"count":5784,"max":[139.103546,117.703056,325.688171],"min":[-88.06353,-61.4195557,-14.7015686],"type":"VEC3","name":"accessorPositions"},{"bufferView":1,"byteOffset":565920,"componentType":5126,"count":5784,"type":"VEC3","name":"accessorNormals"},{"bufferView":2,"byteOffset":165504,"componentType":5126,"count":5784,"type":"VEC2","name":"accessorUVs"},{"bufferView":0,"byteOffset":52944,"componentType":5123,"count":1440,"type":"SCALAR","name":"accessorIndices"},{"bufferView":1,"byteOffset":635328,"componentType":5126,"count":1440,"max":[17.3734131,1.52587891E-05,17.3734131],"min":[-17.3734131,-17.8874359,-17.3734131],"type":"VEC3","name":"accessorPositions"},{"bufferView":1,"byteOffset":652608,"componentType":5126,"count":1440,"type":"VEC3","name":"accessorNormals"},{"bufferView":2,"byteOffset":211776,"componentType":5126,"count":1440,"type":"VEC2","name":"accessorUVs"},{"bufferView":0,"byteOffset":55824,"componentType":5123,"count":2880,"type":"SCALAR","name":"accessorIndices"},{"bufferView":1,"byteOffset":669888,"componentType":5126,"count":2880,"max":[8.577179,8.577217,8.577217],"min":[-8.577209,-8.577219,-8.577217],"type":"VEC3","name":"accessorPositions"},{"bufferView":1,"byteOffset":704448,"componentType":5126,"count":2880,"type":"VEC3","name":"accessorNormals"},{"bufferView":2,"byteOffset":223296,"componentType":5126,"count":2880,"type":"VEC2","name":"accessorUVs"},{"bufferView":0,"byteOffset":61584,"componentType":5123,"count":7296,"type":"SCALAR","name":"accessorIndices"},{"bufferView":1,"byteOffset":739008,"componentType":5126,"count":7296,"max":[11.95871,14.24942,15.4263458],"min":[-15.6705322,-2.07415771,-12.2029114],"type":"VEC3","name":"accessorPositions"},{"bufferView":1,"byteOffset":826560,"componentType":5126,"count":7296,"type":"VEC3","name":"accessorNormals"},{"bufferView":2,"byteOffset":246336,"componentType":5126,"count":7296,"type":"VEC2","name":"accessorUVs"},{"bufferView":3,"componentType":5126,"count":89,"max":[3.0],"min":[0.0],"type":"SCALAR","name":"accessorAnimationInput"},{"bufferView":4,"componentType":5126,"count":89,"type":"VEC3","name":"accessorAnimationPositions"},{"bufferView":3,"byteOffset":356,"componentType":5126,"count":25,"max":[3.0],"min":[0.0],"type":"SCALAR","name":"accessorAnimationInput"},{"bufferView":5,"componentType":5126,"count":25,"type":"VEC4","name":"accessorAnimationRotations"},{"bufferView":3,"byteOffset":456,"componentType":5126,"count":28,"max":[3.0],"min":[0.0],"type":"SCALAR","name":"accessorAnimationInput"},{"bufferView":5,"byteOffset":400,"componentType":5126,"count":28,"type":"VEC4","name":"accessorAnimationRotations"},{"bufferView":3,"byteOffset":568,"componentType":5126,"count":20,"max":[3.0],"min":[0.0],"type":"SCALAR","name":"accessorAnimationInput"},{"bufferView":5,"byteOffset":848,"componentType":5126,"count":20,"type":"VEC4","name":"accessorAnimationRotations"},{"bufferView":3,"byteOffset":648,"componentType":5126,"count":7,"max":[3.0],"min":[0.0],"type":"SCALAR","name":"accessorAnimationInput"},{"bufferView":5,"byteOffset":1168,"componentType":5126,"count":7,"type":"VEC4","name":"accessorAnimationRotations"},{"bufferView":3,"byteOffset":676,"componentType":5126,"count":7,"max":[3.0],"min":[0.0],"type":"SCALAR","name":"accessorAnimationInput"},{"bufferView":5,"byteOffset":1280,"componentType":5126,"count":7,"type":"VEC4","name":"accessorAnimationRotations"}],"bufferViews":[{"buffer":0,"byteLength":76176,"name":"bufferViewScalar"},{"buffer":0,"byteOffset":76176,"byteLength":914112,"byteStride":12,"name":"bufferViewFloatVec3"},{"buffer":0,"byteOffset":990288,"byteLength":304704,"byteStride":8,"name":"bufferViewFloatVec2"},{"buffer":0,"byteOffset":1294992,"byteLength":704,"name":"bufferViewAnimationFloatScalar"},{"buffer":0,"byteOffset":1295696,"byteLength":1068,"name":"bufferViewAnimationFloatVec3"},{"buffer":0,"byteOffset":1296764,"byteLength":1392,"name":"bufferViewAnimationFloatVec4"}],"buffers":[{"uri":"char_swim.bin","byteLength":1298156}],"materials":[{"pbrMetallicRoughness":{"baseColorFactor":[0.9999998,0.9999998,0.9999998,1.0],"metallicFactor":0.4645831,"roughnessFactor":0.840000033},"emissiveFactor":[0.0,0.0,0.0],"alphaMode":"OPAQUE","name":"07 - Default"},{"pbrMetallicRoughness":{"baseColorFactor":[0.9437976,0.9813242,0.9813242,1.0],"metallicFactor":0.38267976,"roughnessFactor":0.270000041},"emissiveFactor":[0.0,0.0,0.0],"alphaMode":"OPAQUE","name":"05 - Default"},{"pbrMetallicRoughness":{"baseColorFactor":[0.896984637,0.896984637,0.914114,1.0],"metallicFactor":0.9967918,"roughnessFactor":0.330000043},"emissiveFactor":[0.0,0.0,0.0],"alphaMode":"OPAQUE","name":"06 - Default"}],"animations":[{"channels":[{"sampler":0,"target":{"node":0,"path":"translation"}},{"sampler":1,"target":{"node":1,"path":"rotation"}},{"sampler":2,"target":{"node":2,"path":"rotation"}},{"sampler":3,"target":{"node":4,"path":"rotation"}},{"sampler":4,"target":{"node":8,"path":"rotation"}},{"sampler":5,"target":{"node":9,"path":"rotation"}}],"samplers":[{"input":28,"interpolation":"LINEAR","output":29},{"input":30,"interpolation":"LINEAR","output":31},{"input":32,"interpolation":"LINEAR","output":33},{"input":34,"interpolation":"LINEAR","output":35},{"input":36,"interpolation":"LINEAR","output":37},{"input":38,"interpolation":"LINEAR","output":39}],"name":"All Animations"}]}