{"asset":{"version":"2.0","generator":"babylon.js glTF exporter for 3ds max 2015 v1.3.4"},"scene":0,"scenes":[{"nodes":[0,10],"extensions":{}}],"nodes":[{"children":[1,2,3,4,5,6,7,8,9],"mesh":0,"translation":[-160.941513,233.829987,-48.8392143],"rotation":[2.543502E-07,0.7071068,-1.3480728E-07,0.7071068],"scale":[1.85557735,1.63855,1.63855028],"name":"GeoSphere002"},{"mesh":1,"translation":[-11.12603,-38.9853821,-64.7639],"rotation":[-2.56913523E-07,0.505314469,-1.89988363E-08,0.8629353],"scale":[0.422276318,0.126719445,0.247831464],"name":"GeoSphere006"},{"mesh":1,"translation":[-11.1260033,-38.98536,65.78992],"rotation":[-0.8629353,-1.46743588E-07,-0.50531435,-2.26148643E-07],"scale":[0.422276348,-0.126719445,0.247831345],"name":"GeoSphere007"},{"mesh":2,"translation":[-61.10431,-22.0038071,0.363418579],"rotation":[-0.000452128064,0.7071067,-0.000452248263,0.7071066],"scale":[0.6102954,0.6102956,0.5389158],"name":"Box002"},{"mesh":3,"translation":[64.4959641,-54.4848633,-22.1847076],"rotation":[0.0422850065,0.379561663,-0.09457272,0.919348061],"scale":[0.388494074,0.182327062,0.259270817],"name":"GeoSphere003"},{"mesh":4,"translation":[66.1208344,56.2027435,-0.391487122],"rotation":[-0.661155343,0.27726844,0.6251288,0.3085607],"scale":[0.6102955,0.570668042,0.5807144],"name":"Cone001"},{"mesh":5,"translation":[-82.6825,-0.6119995,35.98823],"rotation":[-2.01179745E-07,-1.36076181E-08,-2.37588822E-07,1.0],"scale":[0.5858419,0.726954341,0.7269541],"name":"Sphere007"},{"mesh":5,"translation":[-82.68251,-0.6120148,-36.0453339],"rotation":[-1.0,2.37588779E-07,4.884395E-09,-2.38418579E-07],"scale":[0.5858419,-0.7269543,0.7269541],"name":"Sphere008"},{"mesh":6,"translation":[-82.0296249,-0.0297851563,-36.9852142],"rotation":[-0.5199145,0.463024974,0.56744206,0.439666182],"scale":[0.5332191,-0.497964352,0.5523418],"name":"Sphere009"},{"mesh":6,"translation":[-82.02961,-0.029800415,36.92813],"rotation":[-0.418879718,-0.5638355,-0.429050922,0.5679302],"scale":[0.533219039,0.497964352,0.5523419],"name":"Sphere006"},{"translation":[0.0,0.0,0.0],"rotation":[0.0,0.0,0.0,1.0],"scale":[1.0,1.0,1.0],"name":"Default light"}],"meshes":[{"primitives":[{"attributes":{"POSITION":1,"NORMAL":2,"TEXCOORD_0":3},"indices":0,"mode":4,"material":0}],"name":"GeoSphere002"},{"primitives":[{"attributes":{"POSITION":5,"NORMAL":6,"TEXCOORD_0":7},"indices":4,"mode":4,"material":0}],"name":"GeoSphere006"},{"primitives":[{"attributes":{"POSITION":9,"NORMAL":10,"TEXCOORD_0":11},"indices":8}],"name":"Box002"},{"primitives":[{"attributes":{"POSITION":13,"NORMAL":14,"TEXCOORD_0":15},"indices":12,"mode":4,"material":0}],"name":"GeoSphere003"},{"primitives":[{"attributes":{"POSITION":17,"NORMAL":18,"TEXCOORD_0":19},"indices":16,"mode":4,"material":0}],"name":"Cone001"},{"primitives":[{"attributes":{"POSITION":21,"NORMAL":22,"TEXCOORD_0":23},"indices":20,"mode":4,"material":1}],"name":"Sphere007"},{"primitives":[{"attributes":{"POSITION":25,"NORMAL":26,"TEXCOORD_0":27},"indices":24,"mode":4,"material":0}],"name":"Sphere009"}],"accessors":[{"bufferView":0,"componentType":5123,"count":6000,"type":"SCALAR","name":"accessorIndices"},{"bufferView":1,"componentType":5126,"count":6000,"max":[89.38454,89.56123,89.56124],"min":[-89.38453,-89.561264,-89.561264],"type":"VEC3","name":"accessorPositions"},{"bufferView":1,"byteOffset":72000,"componentType":5126,"count":6000,"type":"VEC3","name":"accessorNormals"},{"bufferView":2,"componentType":5126,"count":6000,"type":"VEC2","name":"accessorUVs"},{"bufferView":0,"byteOffset":12000,"componentType":5123,"count":2940,"type":"SCALAR","name":"accessorIndices"},{"bufferView":1,"byteOffset":144000,"componentType":5126,"count":2940,"max":[161.7359,89.56128,36.0626526],"min":[-16.9259644,-89.56128,-142.500061],"type":"VEC3","name":"accessorPositions"},{"bufferView":1,"byteOffset":179280,"componentType":5126,"count":2940,"type":"VEC3","name":"accessorNormals"},{"bufferView":2,"byteOffset":48000,"componentType":5126,"count":2940,"type":"VEC2","name":"accessorUVs"},{"bufferView":0,"byteOffset":17880,"componentType":5123,"count":11748,"type":"SCALAR","name":"accessorIndices"},{"bufferView":1,"byteOffset":214560,"componentType":5126,"count":11748,"max":[55.8639679,9.465225,57.2882767],"min":[-55.86396,-4.73493958,-53.18322],"type":"VEC3","name":"accessorPositions"},{"bufferView":1,"byteOffset":355536,"componentType":5126,"count":11748,"type":"VEC3","name":"accessorNormals"},{"bufferView":2,"byteOffset":71520,"componentType":5126,"count":11748,"type":"VEC2","name":"accessorUVs"},{"bufferView":0,"byteOffset":41376,"componentType":5123,"count":5784,"type":"SCALAR","name":"accessorIndices"},{"bufferView":1,"byteOffset":496512,"componentType":5126,"count":5784,"max":[139.103546,117.703064,325.6882],"min":[-88.06354,-61.4195557,-14.7015686],"type":"VEC3","name":"accessorPositions"},{"bufferView":1,"byteOffset":565920,"componentType":5126,"count":5784,"type":"VEC3","name":"accessorNormals"},{"bufferView":2,"byteOffset":165504,"componentType":5126,"count":5784,"type":"VEC2","name":"accessorUVs"},{"bufferView":0,"byteOffset":52944,"componentType":5123,"count":1440,"type":"SCALAR","name":"accessorIndices"},{"bufferView":1,"byteOffset":635328,"componentType":5126,"count":1440,"max":[17.3734131,0.0,17.3734131],"min":[-17.3734131,-17.8874512,-17.3734055],"type":"VEC3","name":"accessorPositions"},{"bufferView":1,"byteOffset":652608,"componentType":5126,"count":1440,"type":"VEC3","name":"accessorNormals"},{"bufferView":2,"byteOffset":211776,"componentType":5126,"count":1440,"type":"VEC2","name":"accessorUVs"},{"bufferView":0,"byteOffset":55824,"componentType":5123,"count":2880,"type":"SCALAR","name":"accessorIndices"},{"bufferView":1,"byteOffset":669888,"componentType":5126,"count":2880,"max":[8.577217,8.577225,8.577217],"min":[-8.577225,-8.577225,-8.577217],"type":"VEC3","name":"accessorPositions"},{"bufferView":1,"byteOffset":704448,"componentType":5126,"count":2880,"type":"VEC3","name":"accessorNormals"},{"bufferView":2,"byteOffset":223296,"componentType":5126,"count":2880,"type":"VEC2","name":"accessorUVs"},{"bufferView":0,"byteOffset":61584,"componentType":5123,"count":7296,"type":"SCALAR","name":"accessorIndices"},{"bufferView":1,"byteOffset":739008,"componentType":5126,"count":7296,"max":[11.95874,14.2494431,15.4263611],"min":[-15.6705017,-2.07415,-12.2029114],"type":"VEC3","name":"accessorPositions"},{"bufferView":1,"byteOffset":826560,"componentType":5126,"count":7296,"type":"VEC3","name":"accessorNormals"},{"bufferView":2,"byteOffset":246336,"componentType":5126,"count":7296,"type":"VEC2","name":"accessorUVs"},{"bufferView":3,"componentType":5126,"count":79,"max":[3.0],"min":[0.0],"type":"SCALAR","name":"accessorAnimationInput"},{"bufferView":4,"componentType":5126,"count":79,"type":"VEC3","name":"accessorAnimationPositions"},{"bufferView":3,"byteOffset":316,"componentType":5126,"count":31,"max":[3.0],"min":[0.0],"type":"SCALAR","name":"accessorAnimationInput"},{"bufferView":5,"componentType":5126,"count":31,"type":"VEC4","name":"accessorAnimationRotations"},{"bufferView":3,"byteOffset":440,"componentType":5126,"count":29,"max":[3.0],"min":[0.0],"type":"SCALAR","name":"accessorAnimationInput"},{"bufferView":5,"byteOffset":496,"componentType":5126,"count":29,"type":"VEC4","name":"accessorAnimationRotations"},{"bufferView":3,"byteOffset":556,"componentType":5126,"count":21,"max":[3.0],"min":[0.0],"type":"SCALAR","name":"accessorAnimationInput"},{"bufferView":5,"byteOffset":960,"componentType":5126,"count":21,"type":"VEC4","name":"accessorAnimationRotations"},{"bufferView":3,"byteOffset":640,"componentType":5126,"count":7,"max":[3.0],"min":[0.0],"type":"SCALAR","name":"accessorAnimationInput"},{"bufferView":5,"byteOffset":1296,"componentType":5126,"count":7,"type":"VEC4","name":"accessorAnimationRotations"},{"bufferView":3,"byteOffset":668,"componentType":5126,"count":7,"max":[3.0],"min":[0.0],"type":"SCALAR","name":"accessorAnimationInput"},{"bufferView":5,"byteOffset":1408,"componentType":5126,"count":7,"type":"VEC4","name":"accessorAnimationRotations"}],"bufferViews":[{"buffer":0,"byteLength":76176,"name":"bufferViewScalar"},{"buffer":0,"byteOffset":76176,"byteLength":914112,"byteStride":12,"name":"bufferViewFloatVec3"},{"buffer":0,"byteOffset":990288,"byteLength":304704,"byteStride":8,"name":"bufferViewFloatVec2"},{"buffer":0,"byteOffset":1294992,"byteLength":696,"name":"bufferViewAnimationFloatScalar"},{"buffer":0,"byteOffset":1295688,"byteLength":948,"name":"bufferViewAnimationFloatVec3"},{"buffer":0,"byteOffset":1296636,"byteLength":1520,"name":"bufferViewAnimationFloatVec4"}],"buffers":[{"uri":"char_S.bin","byteLength":1298156}],"materials":[{"pbrMetallicRoughness":{"baseColorFactor":[0.9437976,0.9813242,0.9813242,1.0],"metallicFactor":0.38267976,"roughnessFactor":0.270000041},"emissiveFactor":[0.0,0.0,0.0],"alphaMode":"OPAQUE","name":"05 - Default"},{"pbrMetallicRoughness":{"baseColorFactor":[0.896984637,0.896984637,0.914114,1.0],"metallicFactor":0.9967918,"roughnessFactor":0.330000043},"emissiveFactor":[0.0,0.0,0.0],"alphaMode":"OPAQUE","name":"06 - Default"}],"animations":[{"channels":[{"sampler":0,"target":{"node":0,"path":"translation"}},{"sampler":1,"target":{"node":1,"path":"rotation"}},{"sampler":2,"target":{"node":2,"path":"rotation"}},{"sampler":3,"target":{"node":4,"path":"rotation"}},{"sampler":4,"target":{"node":8,"path":"rotation"}},{"sampler":5,"target":{"node":9,"path":"rotation"}}],"samplers":[{"input":28,"interpolation":"LINEAR","output":29},{"input":30,"interpolation":"LINEAR","output":31},{"input":32,"interpolation":"LINEAR","output":33},{"input":34,"interpolation":"LINEAR","output":35},{"input":36,"interpolation":"LINEAR","output":37},{"input":38,"interpolation":"LINEAR","output":39}],"name":"All Animations"}]}